<svg xmlns="http://www.w3.org/2000/svg" xmlns:xlink="http://www.w3.org/1999/xlink" viewBox="0 0 648.65 520.21"><defs><style>.cls-1{fill:#0f380f;}.cls-2{fill:#aaa;}.cls-3{fill:#9bbc0f;}.cls-4{fill:#8bac0f;}</style></defs><g id="Layer_2" data-name="Layer 2"><g id="Layer_1-2" data-name="Layer 1"><path class="cls-1" d="M27.27,276.2c-4-54.8,8.13-96.52,36-124,38.36-37.75,91.8-33.48,94.07-33.28l-2.24,25.7c-.43,0-44.21-3.27-73.91,26.15C59.09,192.7,49.59,227.54,53,274.33Z"/><path class="cls-1" d="M614.92,276.2c4-54.8-8.12-96.52-36-124-38.35-37.75-91.79-33.48-94.07-33.28l2.25,25.7c.42,0,44.21-3.27,73.9,26.15,22.14,21.93,31.63,56.77,28.22,103.56Z"/><rect class="cls-2" x="197.15" y="394.18" width="51.14" height="85.85"/><path class="cls-3" d="M145.09,500.13a20.09,20.09,0,0,0,20.09,20.08h79.46a20.09,20.09,0,0,0,20.09-20.08h0A20.1,20.1,0,0,0,244.64,480H165.18a20.1,20.1,0,0,0-20.09,20.1Z"/><rect class="cls-2" x="381.63" y="394.18" width="51.14" height="85.85"/><path class="cls-3" d="M484.82,500.13a20.08,20.08,0,0,1-20.09,20.08H385.28a20.08,20.08,0,0,1-20.09-20.08h0A20.09,20.09,0,0,1,385.28,480h79.45a20.09,20.09,0,0,1,20.09,20.1Z"/><path class="cls-2" d="M393.38,57.54a82.21,82.21,0,0,0-156.84,0Z"/><path class="cls-3" d="M13.79,332.23a6.45,6.45,0,0,1-6.37-5.51L0,276l84.06-8.94,14.08,48.31A6.45,6.45,0,0,1,85.76,319L74.69,281l-60,6.38,5.47,37.45a6.43,6.43,0,0,1-5.44,7.3A5.13,5.13,0,0,1,13.79,332.23Z"/><path class="cls-3" d="M634.86,332.23a6.45,6.45,0,0,0,6.37-5.51L648.65,276l-84.06-8.94-14.08,48.31A6.45,6.45,0,0,0,562.89,319L574,281l60,6.38-5.48,37.45a6.44,6.44,0,0,0,5.45,7.3A5.07,5.07,0,0,0,634.86,332.23Z"/><rect class="cls-4" x="171.82" y="78.46" width="296" height="296"/><path d="M447.82,98.45v256h-256v-256h256m40-40h-336v336h336v-336Z"/><image width="256" height="256" transform="translate(191.82 98.45)" xlink:href="../../code/de9qwez-75deff17-0f17-4ec5-be11-4b48352cb0f0.png"/></g></g></svg>